<svg width="16" height="16" viewBox="0 0 16 16" fill="none" xmlns="http://www.w3.org/2000/svg">
<path fill-rule="evenodd" clip-rule="evenodd" d="M8 0C3.58882 0 0 3.58882 0 8C0 12.4109 3.58882 16 8 16C12.4109 16 16 12.4109 16 8C16 3.58882 12.4115 0 8 0ZM6.59417 8.31564C6.94548 8.15377 7.28153 8.0728 7.60213 8.0728H11.8593V7.2546C11.8593 6.94097 11.7467 6.67153 11.5215 6.44652C11.2963 6.22153 11.027 6.10905 10.7131 6.10905H7.92957V5.94542C7.92957 5.63179 7.81702 5.36247 7.59189 5.13754C7.36675 4.91255 7.09726 4.8 6.78344 4.8H5.14613C4.83231 4.8 4.56282 4.91253 4.33768 5.13754C4.11253 5.36249 4 5.63181 4 5.94544V10.8544C4 10.8681 4.00088 10.8894 4.00258 10.9184C4.00427 10.9474 4.00516 10.9687 4.00516 10.9823L4.03072 10.9518L5.75505 8.92669C5.96312 8.68121 6.24284 8.47748 6.59417 8.31564ZM13.1691 8.72711C13.2851 8.72711 13.3883 8.74936 13.4786 8.79374C13.5691 8.83807 13.6142 8.91132 13.6142 9.01354C13.6142 9.11939 13.5614 9.23179 13.4556 9.35113L11.7364 11.3761C11.5897 11.55 11.3843 11.6975 11.1199 11.8185C10.8555 11.9394 10.6109 12 10.3858 12H4.81869C4.70268 12 4.59951 11.9778 4.50913 11.9334C4.41875 11.8892 4.37354 11.8159 4.37354 11.7136C4.37354 11.6079 4.42642 11.4954 4.5322 11.3761L6.2514 9.35113C6.39804 9.17713 6.60358 9.02991 6.86792 8.90873C7.13224 8.78767 7.377 8.72711 7.60213 8.72711H13.1691Z" fill="white"/>
</svg>
