<svg width="16" height="16" viewBox="0 0 16 16" fill="none" xmlns="http://www.w3.org/2000/svg">
<path fill-rule="evenodd" clip-rule="evenodd" d="M8 0C3.58203 0 0 3.58203 0 8C0 12.418 3.58203 16 8 16C12.4189 16 16 12.418 16 8C16 3.58203 12.4189 0 8 0Z" fill="#FB6533"/>
<path fill-rule="evenodd" clip-rule="evenodd" d="M9.81096 10.8755C9.47643 11.2507 8.99336 11.4716 8.36165 11.538V12.5H7.55646V11.5429C6.5031 11.435 5.85147 10.8224 5.59998 9.70679L6.84509 9.38223C6.96048 10.0836 7.34232 10.4339 7.9906 10.4339C8.29357 10.4339 8.51771 10.3592 8.66048 10.209C8.80325 10.0587 8.87463 9.87778 8.87463 9.66528C8.87463 9.44531 8.80323 9.27845 8.66048 9.16556C8.51771 9.05187 8.19978 8.90822 7.70755 8.73392C7.26513 8.58038 6.91896 8.42927 6.66994 8.27824C6.42092 8.12882 6.21838 7.91882 6.06315 7.64902C5.90791 7.3784 5.8299 7.06297 5.8299 6.70438C5.8299 6.23372 5.96935 5.80954 6.24661 5.4327C6.52387 5.05668 6.96048 4.82673 7.55649 4.7429V4H8.36168V4.74293C9.26148 4.85085 9.84421 5.35968 10.109 6.27027L9 6.72515C8.78336 6.10093 8.44963 5.78883 7.99644 5.78883C7.76899 5.78883 7.58637 5.85855 7.44942 5.998C7.31161 6.13746 7.24273 6.30679 7.24273 6.50519C7.24273 6.70773 7.30914 6.86296 7.44195 6.97171C7.57394 7.07963 7.85866 7.21327 8.29363 7.37346C8.77175 7.54779 9.14695 7.71296 9.41839 7.86819C9.69065 8.02342 9.9073 8.23842 10.07 8.51151C10.2319 8.78545 10.3132 9.10505 10.3132 9.4711C10.3132 10.033 10.1455 10.5012 9.81096 10.8755Z" fill="white"/>
</svg>
