<svg width="172" height="58" viewBox="0 0 172 58" fill="none" xmlns="http://www.w3.org/2000/svg">
<g clip-path="url(#clip0_29:83)">
<path d="M0 50.4084L3.6821 49.0547L10.4828 45.4948L16.4146 4.06093L23.7039 4.48668L30.6432 0L38.1438 6.10881L43.8733 1.55697L49.8253 10.1596L57.4746 15.4147L63.279 13.4219L67.7248 17.6951L72.5418 14.4228L80.3298 16.1291L84.297 13.7094L91.4387 22.1728L94.8335 34.9004L102.261 36.8191L108.49 39.2377L112.945 35.5396L119.174 47.9044L125.753 54.1615L131.916 44.6972L139.917 50.1758L144.447 58L152.16 34.3994L161.423 34.186L166.463 36.8832L172 32.3965" stroke="#D267C6" stroke-width="2"/>
</g>
<defs>
<clipPath id="clip0_29:83">
<rect width="172" height="58" fill="white"/>
</clipPath>
</defs>
</svg>
